<?xml version="1.0" standalone="no"?>
<!DOCTYPE svg PUBLIC "-//W3C//DTD SVG 20010904//EN"
 "http://www.w3.org/TR/2001/REC-SVG-20010904/DTD/svg10.dtd">
<svg version="1.0" xmlns="http://www.w3.org/2000/svg"
 width="1400.000000pt" height="1400.000000pt" viewBox="0 0 1400.000000 1400.000000"
 preserveAspectRatio="xMidYMid meet">

<g transform="translate(0.000000,1400.000000) scale(0.100000,-0.100000)"
fill="#000000" stroke="none">
<path d="M7095 12911 c-127 -21 -208 -55 -313 -133 l-54 -40 -78 36 c-181 83
-339 111 -573 103 -127 -4 -182 -11 -257 -30 -472 -123 -750 -411 -1001 -1034
l-53 -133 -253 0 -253 0 0 -445 0 -445 39 24 c21 14 110 64 196 111 222 122
331 200 460 329 182 182 297 360 425 656 123 286 252 468 387 547 111 65 311
83 469 43 138 -36 299 -127 379 -216 17 -19 33 -34 37 -34 3 0 8 19 12 42 4
23 20 72 35 110 52 123 131 206 256 268 98 49 168 67 309 82 117 12 309 1 436
-26 36 -8 66 -13 68 -11 8 7 -112 83 -184 117 -143 67 -353 101 -489 79z"/>
<path d="M7183 12129 c-72 -14 -131 -46 -193 -105 -33 -31 -60 -61 -60 -66 0
-4 128 -8 285 -8 168 0 285 4 285 9 0 12 -45 68 -84 103 -61 57 -152 83 -233
67z"/>
<path d="M8606 11653 c20 -95 29 -129 35 -138 4 -5 10 -30 14 -55 14 -83 96
-333 153 -465 19 -44 83 -161 143 -261 125 -207 168 -311 176 -426 17 -231
-98 -434 -372 -657 -114 -94 -209 -184 -255 -243 -11 -15 -35 -57 -53 -95 -29
-62 -32 -77 -32 -163 0 -89 2 -99 34 -155 18 -33 41 -73 50 -90 26 -50 27
-169 1 -238 -46 -121 -179 -225 -346 -267 -101 -26 -106 -25 -53 9 127 82 185
227 144 366 -9 33 -49 124 -88 203 l-72 145 0 96 c0 130 22 185 153 380 93
139 172 281 172 310 0 7 -8 7 -26 1 -14 -6 -43 -10 -64 -10 -43 0 -39 6 -60
-95 -81 -388 -349 -745 -705 -940 -122 -67 -214 -101 -392 -145 l-43 -11 0
-107 0 -108 35 -13 c19 -7 59 -34 89 -62 42 -38 65 -51 104 -59 245 -46 486
-132 758 -271 153 -78 229 -124 395 -240 140 -97 317 -257 447 -403 l42 -48 0
595 0 596 27 3 c17 2 33 13 43 31 13 24 13 30 0 55 -10 17 -26 28 -43 30 -24
3 -27 8 -27 38 0 27 4 34 20 34 28 0 60 35 60 65 0 30 -32 65 -61 65 -12 0
-34 -13 -49 -30 -22 -24 -36 -30 -68 -30 -44 0 -68 26 -29 32 12 2 28 15 37
31 13 24 13 30 0 55 -17 30 -70 42 -96 21 -8 -6 -16 -10 -18 -8 -9 12 -46 91
-46 98 0 5 17 7 38 5 59 -7 84 -7 129 1 l42 8 -2 -41 c-2 -53 17 -74 62 -70
27 2 39 10 51 31 13 24 13 30 0 55 -10 17 -26 28 -43 30 -23 3 -27 8 -27 36 0
27 5 33 32 41 64 19 62 109 -2 121 -26 6 -30 11 -30 40 0 28 4 33 27 36 17 2
33 13 43 31 13 24 13 30 0 55 -10 17 -26 28 -43 30 -24 3 -27 8 -27 38 0 27 4
34 20 34 32 0 62 37 58 73 -3 26 2 34 30 50 33 20 33 20 48 -2 21 -29 77 -29
98 1 21 30 20 50 -4 80 -19 25 -19 26 -1 42 10 9 33 48 52 86 22 46 38 69 47
65 8 -3 21 -5 31 -5 12 0 18 -10 19 -35 2 -32 0 -35 -25 -35 -34 0 -46 -8 -62
-37 -9 -18 -9 -28 0 -45 16 -30 28 -38 62 -38 24 0 27 -4 27 -35 0 -30 -3 -35
-24 -35 -35 0 -68 -31 -68 -65 0 -33 32 -65 67 -65 20 0 23 -4 19 -30 -4 -20
-1 -30 8 -32 7 0 -7 -4 -32 -7 -36 -5 -47 -11 -58 -33 -10 -22 -10 -32 -1 -50
16 -30 28 -38 62 -38 25 0 27 -3 25 -35 -2 -29 -6 -35 -24 -35 -27 0 -60 -28
-69 -57 -8 -29 34 -73 70 -73 22 0 25 -4 23 -32 -3 -29 -7 -34 -38 -38 -80
-11 -70 -119 11 -120 38 0 63 32 56 74 l-5 34 41 -5 c59 -7 96 -7 144 1 l42 7
-10 -31 c-16 -44 9 -80 56 -80 45 0 70 34 60 81 l-7 32 58 -7 c71 -9 96 -9
152 0 l42 6 -10 -27 c-17 -44 12 -85 61 -85 39 0 63 32 56 74 l-6 35 57 -5
c82 -7 102 -7 149 1 l41 7 -5 -39 c-6 -47 14 -73 57 -73 42 0 63 26 57 71 l-5
37 57 -4 c75 -6 98 -6 147 -1 l42 5 -5 -37 c-6 -45 15 -71 57 -71 43 0 63 26
57 73 l-5 39 56 -7 c56 -6 81 -7 152 -2 34 2 35 1 32 -34 -4 -43 17 -69 56
-69 33 0 45 8 61 38 8 15 9 28 1 41 -13 26 -4 30 55 24 70 -7 94 -6 142 1 l43
7 -6 -31 c-4 -20 -1 -38 10 -55 14 -22 24 -26 54 -23 45 4 68 40 52 82 -9 24
-8 26 20 26 l30 0 0 1295 0 1295 -1080 0 c-1095 0 -1086 0 -1081 -32 0 -5 -12
-8 -27 -8 -82 0 -86 -122 -4 -125 24 -1 27 -6 30 -38 3 -34 1 -36 -26 -35 -37
1 -51 -8 -63 -39 -6 -16 -5 -32 2 -46 16 -29 28 -37 62 -37 24 0 27 -4 27 -35
0 -30 -3 -35 -24 -35 -35 0 -68 -31 -68 -65 0 -35 36 -68 69 -62 20 4 22 0 20
-32 -2 -33 -5 -36 -37 -41 -44 -6 -68 -46 -49 -82 16 -30 28 -38 62 -38 25 0
27 -3 25 -35 -2 -31 -5 -35 -29 -35 -35 0 -72 -44 -63 -74 8 -28 41 -56 68
-56 18 0 22 -6 23 -35 1 -33 -1 -35 -32 -35 -39 0 -58 -20 -58 -62 0 -36 24
-58 63 -58 24 0 27 -4 26 -35 -1 -29 -5 -35 -22 -35 -27 0 -60 -28 -69 -57 -8
-28 33 -73 67 -73 20 0 24 -5 23 -32 0 -30 -3 -33 -36 -36 -34 -3 -36 -1 -48
40 -7 24 -24 64 -37 89 -20 40 -21 51 -12 77 16 41 -10 82 -51 82 -22 0 -37
11 -66 48 -21 26 -54 63 -73 84 l-34 36 21 23 c11 13 21 33 21 46 0 28 -33 63
-60 63 -16 0 -20 7 -20 35 0 30 3 35 24 35 28 0 56 33 56 66 0 26 -30 54 -58
54 -18 0 -22 6 -22 34 0 30 4 35 29 41 64 14 66 101 3 120 -28 8 -32 14 -32
42 0 28 3 33 24 33 28 0 56 33 56 66 0 26 -30 54 -58 54 -18 0 -22 6 -22 33 0
29 5 35 35 46 61 22 58 105 -5 117 -21 5 -30 12 -30 25 0 18 -11 19 -195 19
l-195 0 6 -27z m782 -1538 c-1 -30 -5 -35 -25 -35 -20 0 -23 5 -23 35 0 31 3
35 25 35 22 0 24 -4 23 -35z"/>
<path d="M9151 11514 c-27 -34 -26 -50 4 -79 29 -30 45 -31 79 -4 31 25 34 61
6 89 -28 28 -64 25 -89 -6z"/>
<path d="M9145 11317 c-10 -16 -14 -34 -9 -51 13 -53 87 -62 114 -13 13 24 13
30 0 55 -22 39 -82 44 -105 9z"/>
<path d="M5385 11092 c-92 -154 -243 -323 -468 -527 -95 -86 -181 -193 -215
-265 -51 -109 -70 -251 -52 -391 24 -184 81 -313 187 -421 66 -67 111 -93 269
-153 248 -96 384 -198 455 -341 63 -128 51 -225 -59 -447 -85 -174 -116 -277
-107 -352 8 -65 34 -122 75 -163 l32 -32 57 31 c31 18 79 44 106 60 162 90
474 206 670 250 94 21 103 25 157 75 31 28 76 59 100 68 l43 17 0 100 0 100
-35 9 c-19 5 -78 21 -130 34 -126 32 -251 86 -358 153 -126 79 -177 121 -288
236 -186 190 -299 401 -358 662 l-23 100 -54 6 c-83 10 -134 35 -188 94 -137
150 -89 377 97 462 29 14 57 23 63 21 6 -2 34 -60 64 -128 29 -69 99 -233 155
-365 56 -131 105 -261 111 -288 5 -27 18 -62 30 -78 42 -59 40 -59 480 -59
401 0 403 0 436 23 18 12 41 39 51 59 l17 37 140 0 140 0 17 -37 c10 -20 33
-47 51 -59 33 -23 35 -23 439 -23 404 0 405 0 438 23 45 31 25 -12 255 532 81
193 152 354 157 360 6 6 25 4 55 -7 26 -9 48 -16 50 -15 8 9 -36 138 -77 222
-78 164 -79 164 -80 1 l0 -140 -157 -368 c-143 -336 -157 -366 -170 -348 -26
36 -56 45 -178 50 l-120 5 -3 56 -3 57 43 6 c24 4 67 18 97 31 l54 25 43 -40
c37 -34 47 -39 64 -30 28 15 25 39 -11 76 l-31 32 53 54 c88 88 113 159 57
157 -16 0 -36 -19 -68 -62 -53 -72 -144 -138 -228 -164 -75 -23 -209 -24 -282
-1 -85 27 -178 93 -230 165 -36 50 -50 62 -70 60 -40 -3 -36 -37 13 -100 24
-30 62 -71 85 -89 22 -18 41 -37 41 -42 1 -5 -15 -26 -34 -48 -29 -32 -34 -42
-25 -58 17 -32 45 -23 88 25 l40 46 59 -19 c32 -11 84 -23 116 -27 l57 -6 0
-55 0 -54 -253 0 c-223 0 -255 -2 -277 -17 -34 -24 -59 -54 -66 -80 -6 -22 -9
-23 -149 -23 -140 0 -143 1 -149 23 -7 26 -32 56 -66 80 -21 15 -54 17 -267
17 l-243 0 0 54 0 53 70 12 c38 6 92 20 120 31 27 11 50 15 50 10 0 -18 72
-90 90 -90 10 0 23 6 29 14 15 18 5 40 -33 75 -14 14 -26 30 -26 36 0 6 18 26
40 44 56 45 120 132 120 164 0 22 -5 27 -24 27 -17 0 -35 -15 -64 -54 -141
-187 -373 -246 -580 -149 -59 28 -160 116 -192 169 -23 36 -66 47 -76 19 -9
-21 37 -92 95 -149 l50 -49 -29 -34 c-35 -39 -38 -58 -10 -73 17 -9 27 -4 62
29 42 38 44 39 71 24 38 -19 116 -43 145 -43 22 0 23 -3 20 -57 l-3 -58 -132
-5 c-114 -4 -135 -8 -160 -26 l-29 -22 -42 97 c-23 53 -88 204 -144 336 l-103
240 -5 332 -5 331 -40 -66z m1198 -1293 c76 -39 75 -137 -1 -168 -20 -8 -132
-11 -401 -9 l-373 3 -24 28 c-44 51 -26 127 36 150 31 11 741 7 763 -4z m1323
-22 c15 -18 24 -41 24 -62 0 -21 -9 -44 -24 -62 l-24 -28 -379 -3 c-290 -1
-384 1 -403 11 -62 31 -66 121 -7 158 31 18 49 19 410 17 l379 -3 24 -28z"/>
<path d="M9151 11124 c-27 -34 -26 -50 4 -79 27 -28 37 -30 68 -14 43 23 50
66 17 99 -28 28 -64 25 -89 -6z"/>
<path d="M9146 10928 c-22 -30 -20 -54 5 -79 29 -29 79 -23 99 14 13 24 13 30
0 55 -21 37 -81 44 -104 10z"/>
<path d="M5903 10855 c-29 -8 -76 -26 -105 -41 -106 -54 -239 -221 -207 -260
23 -27 48 -16 73 34 56 110 175 191 313 212 144 23 306 -29 472 -150 76 -55
106 -61 106 -20 0 52 -224 189 -366 224 -79 19 -215 20 -286 1z"/>
<path d="M7545 10863 c-107 -24 -233 -84 -333 -160 -57 -42 -73 -59 -70 -76 5
-39 41 -32 113 23 258 195 544 206 718 27 29 -29 61 -72 71 -95 15 -32 25 -42
43 -42 35 0 39 25 12 83 -46 99 -166 192 -298 231 -51 15 -205 21 -256 9z"/>
<path d="M9156 10745 c-22 -22 -29 -52 -16 -74 33 -63 120 -42 120 28 0 48
-70 79 -104 46z"/>
<path d="M2143 9547 l-112 -52 -1 -2102 0 -2103 170 0 170 0 0 -285 0 -284
-157 -3 -158 -3 -3 -57 -3 -58 721 0 721 0 -3 58 -3 57 -362 3 -363 2 0 285 0
285 515 0 515 0 0 1794 c0 1423 -3 1796 -12 1803 -14 11 -1514 714 -1519 712
-2 0 -54 -24 -116 -52z m842 -705 l250 -107 3 -44 c3 -33 0 -42 -10 -38 -7 3
-53 23 -103 45 -49 22 -188 81 -307 132 l-218 93 0 37 c0 20 3 39 6 43 3 3 34
-8 68 -24 33 -16 174 -78 311 -137z m-125 -101 c91 -38 210 -87 265 -109 162
-65 155 -60 155 -104 0 -21 -2 -38 -3 -38 -5 0 -172 67 -437 175 -118 48 -221
90 -227 92 -13 5 -18 74 -7 86 3 3 25 -3 48 -13 22 -11 115 -51 206 -89z m218
-281 c2 -32 0 -41 -10 -38 -7 3 -115 45 -240 93 l-228 88 0 37 c0 20 2 39 5
42 3 2 109 -37 237 -88 l233 -92 3 -42z m-223 -26 l220 -82 3 -47 3 -47 -28
16 c-22 12 -194 76 -425 158 -25 9 -28 15 -28 55 0 39 2 44 18 38 9 -4 116
-45 237 -91z m45 -171 c146 -52 291 -104 323 -115 56 -20 57 -20 57 -59 0 -21
-1 -39 -2 -39 -5 0 -295 100 -438 150 -80 29 -166 59 -192 67 -48 16 -48 16
-48 61 0 38 2 43 18 37 9 -3 136 -49 282 -102z m90 -185 c195 -66 383 -130
418 -141 62 -21 62 -21 62 -60 0 -27 -4 -38 -12 -34 -7 2 -203 67 -435 143
l-423 138 0 44 c0 38 2 43 18 37 9 -3 177 -61 372 -127z m-250 -72 c195 -62
468 -149 593 -188 l137 -43 0 -37 c0 -21 -3 -38 -7 -38 -4 0 -131 38 -283 85
-151 47 -327 102 -390 121 -63 19 -121 37 -127 39 -14 5 -18 85 -5 85 4 0 41
-11 82 -24z m203 -217 c150 -45 328 -98 397 -119 l125 -37 3 -36 c4 -45 4 -45
-124 -8 -54 16 -202 59 -329 96 -126 37 -260 75 -297 86 l-68 20 0 39 c0 22 5
40 11 40 6 0 133 -37 282 -81z m-156 -109 c98 -27 222 -62 275 -77 l98 -28 0
-37 c0 -21 -5 -38 -11 -38 -5 0 -78 18 -162 41 -84 22 -200 53 -259 69 -59 15
-112 31 -117 35 -11 6 -16 85 -6 85 3 0 85 -22 182 -50z m424 -267 l259 -68 0
-37 c0 -21 -3 -38 -7 -37 -5 0 -129 31 -278 68 l-269 68 -2 34 c-1 42 4 52 23
45 8 -4 131 -36 274 -73z m-171 -106 l425 -102 3 -39 3 -39 -38 7 c-21 4 -216
48 -433 99 l-395 92 -3 43 c-2 23 0 42 5 41 4 0 199 -46 433 -102z m-381 -67
c20 -6 200 -46 401 -90 201 -44 375 -82 388 -85 18 -4 22 -12 22 -40 0 -28 -4
-35 -19 -35 -17 0 -364 71 -486 100 -22 5 -96 21 -165 35 -69 14 -141 29 -160
33 -33 7 -35 11 -38 50 -3 46 0 48 57 32z m352 -230 c138 -28 255 -53 260 -56
5 -3 9 -21 9 -40 0 -26 -4 -34 -17 -33 -10 0 -137 24 -283 52 l-265 53 -3 43
c-3 42 -2 43 22 37 14 -3 139 -29 277 -56z m-121 -130 c52 -10 204 -38 338
-62 l242 -43 0 -37 c0 -25 -5 -38 -13 -38 -7 0 -62 9 -123 20 -60 11 -217 38
-349 61 -132 22 -248 42 -257 45 -13 4 -18 16 -18 46 l0 40 43 -7 c23 -4 85
-15 137 -25z m65 -165 c358 -58 325 -48 325 -90 0 -30 -3 -35 -22 -35 -22 0
-620 89 -645 96 -8 2 -13 20 -13 45 l0 41 38 -6 c20 -3 163 -26 317 -51z m85
-165 c231 -33 423 -60 425 -60 3 0 5 -18 5 -41 0 -39 -1 -40 -27 -35 -16 3
-199 28 -408 56 -209 28 -392 53 -407 56 -25 5 -28 10 -28 45 0 21 4 39 10 39
5 0 199 -27 430 -60z m-85 -140 c361 -43 325 -34 325 -82 l0 -40 -37 6 c-21 3
-164 19 -318 36 -154 17 -290 33 -302 36 -19 4 -23 11 -23 45 l0 41 53 -6 c28
-3 165 -20 302 -36z m-225 -130 c47 -5 222 -23 390 -40 168 -17 315 -33 328
-35 18 -4 22 -12 22 -40 0 -43 27 -42 -305 -10 -143 13 -314 29 -380 35 -196
18 -185 15 -185 60 0 46 -4 46 130 30z"/>
<path d="M9168 9579 c-62 -36 -34 -118 40 -119 6 0 21 9 32 20 52 52 -10 136
-72 99z"/>
<path d="M4260 9280 l0 -190 27 -11 c15 -5 38 -7 52 -4 14 4 40 8 59 11 33 4
33 3 27 -26 -10 -46 16 -80 60 -80 44 0 70 34 60 79 l-6 30 58 -5 c78 -6 100
-6 151 2 l42 6 -10 -26 c-25 -66 57 -119 104 -67 17 19 17 21 -5 50 -39 53
-179 156 -339 248 -86 49 -178 105 -205 124 -28 20 -56 39 -62 43 -10 6 -13
-34 -13 -184z"/>
<path d="M9145 9367 c-17 -27 -12 -68 10 -87 25 -21 78 -8 95 23 13 24 13 30
0 55 -22 39 -82 44 -105 9z"/>
<path d="M9156 9176 c-32 -31 -33 -50 -1 -81 29 -30 58 -32 85 -5 37 37 20 93
-32 105 -21 5 -33 1 -52 -19z"/>
<path d="M4276 8978 c-9 -12 -16 -29 -16 -38 0 -9 7 -26 16 -38 23 -34 83 -27
104 11 13 24 13 30 0 55 -21 37 -81 44 -104 10z"/>
<path d="M4626 8978 c-9 -12 -16 -29 -16 -38 0 -9 7 -26 16 -38 23 -34 83 -27
104 11 13 24 13 30 0 55 -21 37 -81 44 -104 10z"/>
<path d="M9144 8975 c-28 -43 0 -95 51 -95 56 0 82 51 49 98 -22 32 -78 30
-100 -3z"/>
<path d="M9476 8978 c-9 -12 -16 -29 -16 -38 0 -9 7 -26 16 -38 23 -34 83 -27
104 11 13 24 13 30 0 55 -21 37 -81 44 -104 10z"/>
<path d="M9831 8981 c-25 -25 -27 -49 -5 -79 23 -34 83 -27 104 11 13 24 13
30 0 55 -20 36 -70 42 -99 13z"/>
<path d="M10185 8986 c-21 -15 -25 -67 -5 -90 17 -22 73 -20 93 2 51 56 -26
133 -88 88z"/>
<path d="M10543 8992 c-33 -21 -32 -82 1 -104 19 -13 64 -9 80 8 22 21 20 67
-2 87 -19 18 -59 22 -79 9z"/>
<path d="M10887 8982 c-37 -41 -11 -102 43 -102 36 0 60 23 60 59 0 54 -68 82
-103 43z"/>
<path d="M11236 8984 c-9 -8 -16 -28 -16 -44 0 -16 7 -36 16 -44 8 -9 28 -16
44 -16 36 0 60 23 60 59 0 52 -68 82 -104 45z"/>
<path d="M4441 8881 c-28 -29 -33 -31 -105 -31 l-76 0 0 -1295 c0 -1266 0
-1295 19 -1295 16 0 20 10 26 63 44 395 231 802 514 1117 37 41 76 85 87 98
29 35 220 202 296 260 l68 51 -73 22 c-176 52 -264 115 -320 228 -29 60 -32
74 -32 161 l0 95 67 140 c92 194 98 218 82 318 -6 36 -8 37 -50 37 -34 0 -44
4 -49 20 -15 47 -82 50 -111 5 -16 -24 -20 -25 -125 -25 -60 0 -109 3 -109 8
-1 17 -28 41 -53 47 -22 6 -32 1 -56 -24z m103 -355 c24 -10 37 -24 45 -49 32
-97 -79 -169 -150 -98 -47 47 -34 127 25 151 30 12 42 12 80 -4z"/>
<path d="M9314 8885 c-18 -18 -23 -31 -19 -48 9 -29 42 -57 69 -57 18 0 22 -6
24 -35 2 -32 0 -35 -25 -35 -34 0 -46 -8 -62 -38 -20 -37 5 -76 52 -82 21 -3
38 -8 37 -12 -1 -37 2 -48 14 -48 8 0 24 -12 35 -26 36 -45 23 -116 -25 -144
l-25 -15 1 -830 0 -830 29 -115 c16 -63 35 -159 42 -212 l12 -98 1039 0 1038
0 0 1295 c0 1262 0 1295 -19 1295 -10 0 -26 11 -35 25 -29 45 -96 42 -111 -5
-6 -18 -15 -20 -121 -20 -94 0 -114 3 -114 15 0 8 -11 22 -25 31 -32 21 -72
11 -87 -21 -11 -24 -14 -25 -123 -25 -104 0 -113 2 -118 20 -8 30 -51 46 -83
31 -14 -6 -28 -20 -31 -31 -5 -18 -14 -20 -118 -20 -104 0 -113 2 -118 20 -3
11 -17 25 -31 31 -32 15 -75 -1 -83 -31 -5 -18 -14 -20 -118 -20 -105 0 -114
2 -120 20 -15 47 -82 50 -111 5 -16 -24 -20 -25 -124 -25 -101 0 -109 1 -115
21 -8 24 -49 42 -77 33 -10 -3 -26 -16 -34 -30 -15 -23 -22 -24 -115 -24 -59
0 -99 4 -99 10 0 18 -39 50 -60 50 -12 0 -32 -11 -46 -25z m764 -370 c49 -41
48 -105 -1 -146 -54 -45 -147 -1 -147 70 0 86 85 129 148 76z m697 11 c63 -27
66 -129 4 -161 -43 -23 -77 -18 -110 14 -47 47 -34 127 25 151 30 12 42 12 81
-4z m715 -1 c40 -20 55 -76 34 -120 -28 -60 -98 -72 -145 -26 -21 22 -29 39
-29 66 0 27 8 44 29 66 33 33 67 37 111 14z"/>
<path d="M9155 8785 c-14 -13 -25 -30 -25 -38 0 -26 41 -67 66 -67 31 0 64 33
64 65 0 30 -32 65 -60 65 -12 0 -32 -11 -45 -25z"/>
<path d="M5800 7388 c-137 -86 -296 -217 -399 -331 l-24 -26 34 9 c19 6 141
10 271 10 131 0 238 3 238 8 0 32 -44 372 -49 371 -3 0 -35 -19 -71 -41z"/>
<path d="M7872 7244 c-13 -103 -21 -189 -19 -191 2 -2 120 -2 263 -1 l259 3
-70 70 c-70 70 -106 102 -159 140 -15 11 -43 32 -62 47 -35 27 -178 118 -186
118 -2 0 -14 -84 -26 -186z"/>
<path d="M5184 6733 c-44 -105 -85 -248 -98 -348 -7 -61 -12 -113 -9 -117 2
-5 33 -8 69 -8 l64 0 0 255 c0 140 -2 255 -5 255 -3 0 -12 -17 -21 -37z"/>
<path d="M9963 6058 l-20 -53 -57 -3 c-48 -3 -56 -6 -56 -22 0 -19 -8 -20
-180 -20 -99 0 -180 -3 -180 -6 0 -33 -37 -224 -58 -301 l-27 -98 3 -477 2
-478 321 0 c176 0 318 4 315 8 -2 4 -10 100 -17 212 -7 113 -15 207 -20 210
-9 7 -50 584 -41 587 7 3 5 122 -3 161 -4 14 -13 22 -25 22 -18 0 -20 7 -20
55 l0 55 450 0 450 0 0 -50 c0 -44 -3 -52 -24 -60 -23 -8 -25 -15 -28 -92 -2
-46 0 -87 3 -93 8 -12 -28 -553 -38 -575 -4 -8 -14 -111 -22 -228 l-16 -212
358 0 357 0 0 -96 0 -95 -897 2 c-494 1 -944 1 -1000 0 l-103 -1 0 -520 0
-520 204 0 c203 0 204 0 209 -22 3 -13 98 -489 211 -1058 122 -611 214 -1053
226 -1078 32 -68 101 -83 151 -33 l29 29 0 1081 0 1081 565 0 565 0 0 1295 0
1295 -340 0 c-330 0 -340 1 -340 20 0 16 -8 19 -57 22 l-58 3 -19 53 -19 52
-367 0 -367 0 -20 -52z m277 -3305 c0 -339 -2 -614 -4 -612 -2 2 -57 270 -121
594 -64 325 -119 600 -122 613 -5 22 -5 22 121 22 l126 0 0 -617z"/>
<path d="M4260 5374 l0 -585 -52 5 c-171 19 -273 26 -306 20 -80 -15 -157 -74
-186 -146 -31 -74 -91 -68 662 -68 572 1 672 3 647 14 -59 26 -105 103 -105
178 0 26 2 27 60 30 l61 3 -64 42 c-65 42 -216 164 -272 220 -169 168 -270
332 -339 553 -28 91 -66 268 -66 313 0 4 -9 7 -20 7 -20 0 -20 -7 -20 -586z"/>
<path d="M5125 5933 c9 -36 72 -173 79 -173 3 0 6 45 6 100 l0 100 -46 0 c-45
0 -46 -1 -39 -27z"/>
<path d="M8940 4974 c-25 -20 -70 -53 -101 -75 -31 -21 -59 -47 -62 -58 -5
-20 -1 -21 104 -21 l109 0 0 95 c0 52 -1 95 -2 95 -2 0 -23 -16 -48 -36z"/>
<path d="M6303 4603 c284 -2 750 -2 1035 0 284 1 51 2 -518 2 -569 0 -802 -1
-517 -2z"/>
<path d="M7948 4603 c7 -3 16 -2 19 1 4 3 -2 6 -13 5 -11 0 -14 -3 -6 -6z"/>
<path d="M2910 2815 l0 -1607 29 -29 c52 -51 123 -34 155 39 9 20 36 138 60
262 91 457 577 2896 583 2918 5 22 4 22 -90 22 l-94 0 -21 -97 c-11 -54 -112
-559 -224 -1122 l-203 -1023 -5 1118 -5 1119 -92 3 -93 3 0 -1606z"/>
<path d="M5028 4413 l-768 -3 0 -520 0 -520 1009 0 1008 0 7 38 c3 20 6 53 6
74 0 53 55 339 85 443 72 248 197 407 370 472 l60 22 -505 -2 c-278 -1 -850
-3 -1272 -4z"/>
<path d="M6955 4402 c226 -69 315 -193 315 -438 l0 -114 81 70 c232 201 470
294 632 249 61 -17 131 -93 152 -164 9 -33 21 -68 26 -77 26 -51 -84 -309
-196 -462 -36 -50 -65 -91 -65 -93 0 -2 245 -3 545 -3 l545 0 0 520 0 520
-242 0 c-134 0 -605 2 -1048 5 -791 5 -804 5 -745 -13z"/>
<path d="M6922 2484 c-35 -30 -67 -52 -72 -49 -4 3 -10 -84 -12 -193 -5 -219
-16 -269 -82 -355 -30 -40 -35 -42 -94 -47 l-63 -5 -25 -55 c-47 -100 -121
-275 -128 -302 -9 -38 -23 -35 -31 5 -8 40 -66 308 -71 325 -5 16 -76 16 -265
-3 -297 -30 -492 -68 -595 -116 -90 -42 -94 -78 -12 -117 342 -160 1811 -211
2633 -91 201 29 362 73 409 110 55 43 23 81 -101 122 -195 64 -780 127 -1179
127 l-124 0 -34 48 c-67 91 -76 141 -76 412 0 132 -3 240 -7 239 -5 0 -36 -25
-71 -55z"/>
</g>
</svg>
